<svg width="22" height="22" viewBox="0 0 22 22" fill="none" xmlns="http://www.w3.org/2000/svg">
<path d="M11 0C8.03169 0 5.34318 1.20406 3.3986 3.1486C2.40884 4.13837 1.61093 5.32088 1.06597 6.63493C0.38329 8.02784 0 9.59416 0 11.25C0 17.0489 4.70101 21.75 10.5 21.75C12.1558 21.75 13.7222 21.3666 15.1151 20.684C16.4291 20.139 17.6116 19.3412 18.6014 18.3514C20.546 16.4068 21.7501 13.7183 21.7501 10.75C21.7501 7.78169 20.546 5.09317 18.6014 3.1486C16.6568 1.20406 13.9683 0 11 0Z" fill="#EBF5FF"/>
<path fill-rule="evenodd" clip-rule="evenodd" d="M16.5303 7.46967C16.8233 7.76257 16.8233 8.23743 16.5303 8.53033L10.5303 14.5303C10.2374 14.8232 9.76256 14.8232 9.46967 14.5303L6.46967 11.5303C6.17678 11.2375 6.17678 10.7626 6.46967 10.4697C6.76256 10.1768 7.23743 10.1768 7.53033 10.4697L10 12.9393L15.4697 7.46967C15.7626 7.17678 16.2374 7.17678 16.5303 7.46967Z" fill="#0855A1"/>
</svg>
